<?xml version="1.0" encoding="utf-8"?>
<!-- Generator: Adobe Illustrator 22.0.1, SVG Export Plug-In . SVG Version: 6.00 Build 0)  -->
<svg version="1.1" id="레이어_1" xmlns="http://www.w3.org/2000/svg" xmlns:xlink="http://www.w3.org/1999/xlink" x="0px"
	 y="0px" viewBox="0 0 319.4 208.6" style="enable-background:new 0 0 319.4 208.6;" xml:space="preserve">
<style type="text/css">
	.st0{fill:none;}
</style>
<g>
	<path id="ch" class="st0" d="M154,41.6l8.5-1.5c0.7,2.4,2.6,3.6,5.5,3.6c2.3,0,3.5-0.6,3.5-1.9c0-0.6-0.3-1.2-0.8-1.5
		c-0.5-0.4-1.5-0.7-2.9-1c-5.2-1-8.6-2.3-10.1-3.9c-1.5-1.6-2.2-3.5-2.2-5.7c0-2.8,1.1-5.2,3.2-7c2.1-1.9,5.2-2.8,9.2-2.8
		c6.1,0,10.1,2.4,12,7.4l-7.6,2.3c-0.8-2-2.4-3-4.8-3c-2,0-3,0.6-3,1.9c0,0.6,0.3,1,0.7,1.3c0.4,0.3,1.3,0.6,2.6,0.9
		c3.6,0.8,6.1,1.4,7.6,2s2.8,1.6,3.8,3c1,1.4,1.5,3.1,1.5,5c0,3-1.2,5.4-3.6,7.4c-2.4,1.9-5.7,2.8-9.7,2.8
		C160.2,50.7,155.7,47.7,154,41.6z"/>
	<path id="_x31_7" class="st0" d="M197.7,28v5.7h-4.4v8.2c0,1.2,0.2,1.8,0.6,2c0.4,0.2,0.8,0.3,1.3,0.3c0.7,0,1.5-0.1,2.5-0.4V50
		c-1.7,0.3-3.4,0.5-5.1,0.5c-2.7,0-4.7-0.6-5.9-1.7c-1.3-1.2-1.9-3-1.9-5.5v-2.6v-7h-3.3V28h3.3l0.1-7.2l8.3-0.1V28L197.7,28
		L197.7,28z"/>
	<path id="a" class="st0" d="M223.4,50.2h-8.3c-0.2-1-0.3-2-0.3-3.1c-1.6,2.4-4,3.6-7.2,3.6c-2.6,0-4.6-0.6-5.9-2
		c-1.3-1.3-2-2.9-2-4.6c0-2.4,1.1-4.2,3.2-5.7c2.1-1.5,5.9-2.3,11.4-2.6v-0.5c0-1-0.2-1.6-0.6-1.9c-0.4-0.3-1.1-0.5-2-0.5
		c-2,0-3.1,0.8-3.4,2.4l-7.9-0.8c1.2-4.7,5-7,11.6-7c1.8,0,3.5,0.2,4.9,0.5c1.5,0.4,2.7,0.9,3.6,1.7c0.9,0.8,1.5,1.5,1.8,2.4
		c0.3,0.8,0.4,2.5,0.4,4.9v8.9C222.7,47.6,222.9,49.1,223.4,50.2z M214.3,39.9c-3.7,0.4-5.6,1.6-5.6,3.6c0,1.3,0.8,2,2.2,2
		c1,0,1.7-0.3,2.4-0.8c0.6-0.6,1-1.8,1-3.6V39.9z"/>
	<path id="r" class="st0" d="M235.6,50.2h-8.4V28h7.2v4.6c0.8-3.3,2.8-5,5.8-5c0.3,0,0.7,0,1.3,0.1v7.7c-0.6-0.1-1.2-0.2-1.7-0.2
		c-2.9,0-4.4,1.6-4.4,4.9L235.6,50.2L235.6,50.2z"/>
	<path id="_x31_6" class="st0" d="M252.7,50.2h-8.4V28h7.2v4.6c0.8-3.3,2.8-5,5.8-5c0.3,0,0.7,0,1.3,0.1v7.7
		c-0.6-0.1-1.2-0.2-1.7-0.2c-2.9,0-4.4,1.6-4.4,4.9L252.7,50.2L252.7,50.2z"/>
	<path id="_x31_5" class="st0" d="M283,28l-8.7,24.1c-0.6,1.8-1.7,3.3-2.9,4.3c-1.3,1-3.2,1.5-5.8,1.5c-0.6,0-2.1-0.1-4.4-0.2v-6.2
		c1.2,0.2,2.2,0.3,3.1,0.3c2.5,0,3.8-0.6,3.8-1.7c0-0.4-0.1-0.9-0.4-1.5l-8-20.6h9.3l3.6,11.8l3.8-11.8L283,28L283,28z"/>
	<path id="_x31_4" class="st0" d="M45.8,104h-10l-5.2-11.3l-3.1,4.4v6.9h-8.6V74.2h8.6v12.3l8.3-12.3H44l-7.5,10.9L45.8,104z"/>
	<path id="_x31_3" class="st0" d="M61.6,96l8.1,0.6c-0.5,2.2-1.7,4-3.7,5.6s-4.7,2.3-8,2.3c-3.8,0-6.7-1.1-9-3.3s-3.3-4.9-3.3-8.1
		c0-3.3,1.1-6.1,3.3-8.4c2.2-2.3,5.1-3.5,8.8-3.5c3.6,0,6.5,1.1,8.6,3.3c2.2,2.2,3.3,5.1,3.3,8.8c0,0.3,0,0.7,0,1.3h-15
		c0,1.4,0.3,2.4,0.8,3.1c0.4,0.7,1.3,1,2.7,1C60.1,98.7,61.2,97.8,61.6,96z M60.9,90.2c0-1.5-0.3-2.5-0.9-3
		c-0.6-0.5-1.3-0.8-2.2-0.8c-2,0-3.1,1.3-3.1,3.8H60.9z"/>
	<path id="e" class="st0" d="M87.8,96l8.1,0.6c-0.5,2.2-1.7,4-3.7,5.6c-2,1.5-4.7,2.3-8,2.3c-3.8,0-6.7-1.1-9-3.3s-3.3-4.9-3.3-8.1
		c0-3.3,1.1-6.1,3.3-8.4c2.2-2.3,5.1-3.5,8.8-3.5c3.6,0,6.5,1.1,8.6,3.3c2.2,2.2,3.3,5.1,3.3,8.8c0,0.3,0,0.7,0,1.3H81.1
		c0,1.4,0.3,2.4,0.8,3.1c0.4,0.7,1.3,1,2.7,1C86.3,98.7,87.5,97.8,87.8,96z M87.2,90.2c0-1.5-0.3-2.5-0.9-3
		c-0.6-0.5-1.3-0.8-2.2-0.8c-2,0-3.1,1.3-3.1,3.8H87.2z"/>
	<path id="_x31_2" class="st0" d="M121.1,104h-8.7V90c0-1.2-0.2-1.9-0.5-2.2c-0.4-0.3-0.8-0.5-1.3-0.5c-1.6,0-2.4,1.1-2.4,3.3v13.4
		h-8.7V81.6h8.1v3.1c1.2-2.4,3.3-3.6,6.4-3.6c1.6,0,3,0.3,4.1,1c1.1,0.6,1.9,1.4,2.4,2.4c0.4,1,0.7,2.7,0.7,5.1V104z"/>
	<path id="u" class="st0" d="M161.4,74.2v19.8c0,3.8-1.1,6.5-3.3,8.1c-2.2,1.6-5.1,2.4-8.7,2.4c-3.8,0-6.8-0.8-9.1-2.4
		c-2.3-1.6-3.4-4.2-3.4-7.7V74.1h9.3v19.2c0,1.4,0.3,2.5,0.9,3.1c0.6,0.6,1.5,1,2.9,1c1.1,0,2-0.3,2.7-0.7c0.7-0.4,1.2-1,1.3-1.6
		c0.1-0.6,0.2-1.8,0.2-3.5V74.1L161.4,74.2L161.4,74.2z"/>
	<path id="_x31_1" class="st0" d="M188.1,104h-8.7V90c0-1.2-0.2-1.9-0.5-2.2c-0.4-0.3-0.8-0.5-1.3-0.5c-1.6,0-2.4,1.1-2.4,3.3v13.4
		h-8.7V81.6h8.1v3.1c1.2-2.4,3.3-3.6,6.4-3.6c1.6,0,3,0.3,4.1,1c1.1,0.6,1.9,1.4,2.4,2.4c0.4,1,0.7,2.7,0.7,5.1V104z"/>
	<path id="_x31_0" class="st0" d="M201.4,73.2v6.9h-8.7v-6.9H201.4z M201.4,81.8V104h-8.7V81.8H201.4z"/>
	<path id="_x39_" class="st0" d="M227.8,111h-8.6v-9.4c-1,1.9-2.7,2.8-5.2,2.8c-2.9,0-5.1-1.1-6.7-3.2s-2.4-4.9-2.4-8.3
		c0-3.2,0.8-5.9,2.5-8.3c1.7-2.3,4.1-3.4,7.4-3.4c3.2,0,5.4,1.2,6.7,3.5c0.6-1,1.1-2,1.5-3h5.1c-0.1,0.6-0.2,1.7-0.2,3V111H227.8z
		 M219.2,89.9c0-1.2-0.3-2-0.8-2.6c-0.5-0.6-1.1-0.9-1.7-0.9c-1,0-1.7,0.4-2.1,1.4c-0.5,0.9-0.8,2.6-0.8,5.1s0.3,4.2,0.7,5
		c0.5,0.8,1.2,1.2,2,1.2c0.6,0,1.2-0.3,1.8-0.8c0.6-0.5,0.8-1.3,0.8-2.6L219.2,89.9L219.2,89.9z"/>
	<path id="_x38_" class="st0" d="M254.3,81.8V104h-8.1v-3.6c-1.2,2.8-3.5,4.1-6.9,4.1c-2.1,0-3.8-0.6-4.9-1.8
		c-1.2-1.2-1.7-2.9-1.7-5.1V81.8h8.7v14c0,0.9,0.1,1.5,0.4,1.9c0.3,0.4,0.7,0.5,1.4,0.5c0.8,0,1.3-0.3,1.8-0.8
		c0.4-0.5,0.7-1.3,0.7-2.2V81.8L254.3,81.8L254.3,81.8z"/>
	<path id="_x37_" class="st0" d="M273.6,96l8.1,0.6c-0.5,2.2-1.7,4-3.7,5.6c-2,1.5-4.7,2.3-8,2.3c-3.8,0-6.7-1.1-9-3.3
		c-2.2-2.2-3.3-4.9-3.3-8.1c0-3.3,1.1-6.1,3.3-8.4c2.2-2.3,5.1-3.5,8.8-3.5c3.6,0,6.5,1.1,8.6,3.3c2.2,2.2,3.3,5.1,3.3,8.8
		c0,0.3,0,0.7,0,1.3h-14.9c0,1.4,0.3,2.4,0.8,3.1c0.4,0.7,1.3,1,2.7,1C272.1,98.7,273.3,97.8,273.6,96z M273,90.2
		c0-1.5-0.3-2.5-0.9-3c-0.6-0.5-1.3-0.8-2.2-0.8c-2,0-3.1,1.3-3.1,3.8H273z"/>
	<path id="_x36_" class="st0" d="M128,127.9l-7.9,29.9h-7.7l-4.2-16.4l-4,16.4h-8l-7.9-29.9H97l4.2,17.2l4.1-17.2h7.1l4.4,17.2
		l4.2-17.2H128z"/>
	<path id="_x35_" class="st0" d="M139.4,126.9v6.9h-8.7v-6.9H139.4z M139.4,135.5v22.3h-8.7v-22.3H139.4z"/>
	<path id="_x34_" class="st0" d="M165.7,157.7H157v-14c0-1.2-0.2-1.9-0.5-2.2c-0.4-0.3-0.8-0.5-1.3-0.5c-1.6,0-2.4,1.1-2.4,3.3v13.4
		H144v-22.3h8v3.1c1.2-2.4,3.3-3.6,6.4-3.6c1.6,0,3,0.3,4.1,1c1.1,0.6,1.9,1.4,2.4,2.4c0.5,1,0.7,2.7,0.7,5.1L165.7,157.7
		L165.7,157.7z"/>
	<path id="_x33_" class="st0" d="M168.3,151.4l6.9-1c0.4,1.6,2,2.4,4.7,2.4c2.2,0,3.4-0.4,3.4-1.3c0-0.4-0.2-0.7-0.6-0.9
		c-0.4-0.2-1.5-0.4-3.1-0.6c-4.5-0.6-7.4-1.6-8.4-2.9c-1.2-1.3-1.7-2.8-1.7-4.5c0-2.3,1-4.1,2.8-5.5c1.9-1.4,4.4-2.1,7.5-2.1
		c5.4,0,8.8,1.9,10.3,5.8l-6.6,1.2c-0.6-1.3-1.9-2-3.8-2c-1,0-1.6,0.1-2.1,0.4c-0.4,0.3-0.7,0.5-0.7,0.8c0,0.7,0.7,1.2,2.1,1.3
		c3.6,0.4,6.1,0.8,7.4,1.2c1.3,0.4,2.4,1.2,3.3,2.3c0.9,1.2,1.4,2.5,1.4,4.1c0,2.4-1,4.4-3.1,5.8c-2,1.4-4.9,2.2-8.4,2.2
		C173.5,158.2,169.7,155.9,168.3,151.4z"/>
	<path id="_x32_" class="st0" d="M204.8,158.2c-3.7,0-6.6-1.2-8.8-3.5c-2.2-2.3-3.3-5-3.3-8.1c0-3.3,1.2-6.1,3.4-8.3
		c2.2-2.2,5.2-3.3,8.8-3.3c3.6,0,6.6,1.1,8.8,3.3c2.2,2.2,3.3,4.9,3.3,8.3c0,3.3-1.2,6.1-3.4,8.3
		C211.6,157.1,208.6,158.2,204.8,158.2z M205,152.9c1.3,0,2.2-0.7,2.5-2.1c0.3-1.4,0.4-2.9,0.4-4.4c0-2.1-0.2-3.6-0.6-4.5
		c-0.4-0.9-1.2-1.4-2.3-1.4c-1,0-1.7,0.4-2.2,1.4c-0.4,1-0.7,2.5-0.7,4.7c0,2.6,0.3,4.2,0.7,5.1C203.2,152.5,204,152.9,205,152.9z"
		/>
	<path id="m" class="st0" d="M254.3,157.7h-8.4v-13.9c0-1-0.1-1.6-0.4-2s-0.8-0.6-1.4-0.6c-1.7,0-2.4,1.2-2.4,3.6v12.9h-8.4v-13.9
		c0-1.8-0.7-2.7-2-2.7c-1.4,0-2.1,0.9-2.1,2.7v13.9h-8.4v-22.3h7.8v3c1.4-2.3,3.5-3.5,6.1-3.5c2.9,0,4.9,1.2,6.3,3.5
		c1.5-2.3,3.6-3.5,6.7-3.5c1.4,0,2.7,0.3,3.8,0.9c1.1,0.6,1.9,1.3,2.4,2.3c0.5,1,0.7,2.4,0.7,4.4L254.3,157.7L254.3,157.7z"/>
	<path id="_x31_" class="st0" d="M273.6,149.8l8.1,0.6c-0.5,2.2-1.7,4-3.7,5.6c-2,1.5-4.7,2.3-8,2.3c-3.8,0-6.7-1.1-9-3.3
		c-2.2-2.2-3.3-4.9-3.3-8.1c0-3.3,1.1-6.1,3.3-8.4c2.2-2.3,5.1-3.5,8.8-3.5c3.6,0,6.5,1.1,8.6,3.3c2.2,2.2,3.3,5.1,3.3,8.8
		c0,0.3,0,0.7,0,1.3h-14.9c0,1.4,0.3,2.4,0.8,3.1c0.4,0.7,1.3,1,2.7,1C272.1,152.5,273.3,151.6,273.6,149.8z M273,144
		c0-1.5-0.3-2.5-0.9-3c-0.6-0.5-1.3-0.8-2.2-0.8c-2,0-3.1,1.3-3.1,3.8L273,144L273,144z"/>
</g>
</svg>
