<?xml version="1.0" encoding="utf-8"?>
<!-- Generator: Adobe Illustrator 16.0.0, SVG Export Plug-In . SVG Version: 6.00 Build 0)  -->
<!DOCTYPE svg PUBLIC "-//W3C//DTD SVG 1.1//EN" "http://www.w3.org/Graphics/SVG/1.1/DTD/svg11.dtd">
<svg version="1.1" id="Layer_1" xmlns="http://www.w3.org/2000/svg" xmlns:xlink="http://www.w3.org/1999/xlink" x="0px" y="0px"
	 width="395px" height="345px" viewBox="0 0 395 345" enable-background="new 0 0 395 345" xml:space="preserve">
<g>
	<g>
		<path fill="#FFFFFF" d="M352.003,87.199L201.065,0.949c-2.214-1.265-4.917-1.265-7.13,0L42.998,87.199
			c-2.243,1.28-3.623,3.666-3.623,6.239v158.125c0,2.574,1.38,4.96,3.623,6.239l150.938,86.25c1.107,0.633,2.329,0.949,3.565,0.949
			c1.237,0,2.458-0.316,3.566-0.949l150.938-86.25c2.242-1.279,3.622-3.665,3.622-6.239V93.438
			C355.625,90.864,354.245,88.479,352.003,87.199z M341.25,247.395L197.5,329.532L53.75,247.395V97.606L197.5,15.468l143.75,82.139
			V247.395z"/>
	</g>
</g>
<polygon fill="#FFFFFF" points="287.857,168.197 201.803,168.197 201.803,82.143 193.197,82.143 193.197,168.197 107.143,168.197 
	107.143,176.804 193.197,176.804 193.197,262.857 201.803,262.857 201.803,176.804 287.857,176.804 "/>
</svg>
