<?xml version="1.0" encoding="utf-8"?>
<!-- Generator: Adobe Illustrator 24.0.0, SVG Export Plug-In . SVG Version: 6.00 Build 0)  -->
<svg version="1.1" id="Layer_1" xmlns="http://www.w3.org/2000/svg" xmlns:xlink="http://www.w3.org/1999/xlink" x="0px" y="0px"
	 viewBox="0 0 400 400" style="enable-background:new 0 0 400 400;" xml:space="preserve">
<style type="text/css">
	.st0{fill:none;}
</style>
<g>
	<path id="a" class="st0" d="M179.02,86.93l2.29-0.67c0.36-0.11,0.67-0.31,0.95-0.6s0.48-0.62,0.63-0.97l10.59-27.68l3.23-6.13h1.04
		l13.07,33.81c0.14,0.36,0.35,0.68,0.63,0.97c0.28,0.29,0.59,0.49,0.95,0.6l2.29,0.67v1.25h-12.99v-1.25l4.64-0.88l-4.43-11.52
		h-12.91l-4.13,11.41l4.53,0.99v1.25h-10.37V86.93z M201.07,72.5l-4.37-11.25l-1.33-3.6h-0.03l-5.52,14.85H201.07z"/>
	<path class="st0" d="M217.58,64.63h-4.16v-1.31c0.69-0.18,1.32-0.34,1.87-0.49c0.55-0.15,1.03-0.36,1.43-0.63
		c0.4-0.27,0.71-0.63,0.95-1.09c0.23-0.46,0.37-1.09,0.43-1.89l0.19-3.28l3.79-0.8v7.36h9.12l-0.77,2.13h-8.35v18.21
		c0,0.53,0.18,0.98,0.53,1.35c0.36,0.36,0.79,0.67,1.29,0.91c0.51,0.24,1.04,0.41,1.6,0.52c0.56,0.11,1.05,0.16,1.48,0.16
		c0.28,0,0.6-0.03,0.96-0.09c0.36-0.06,0.7-0.13,1.04-0.21s0.64-0.17,0.92-0.27s0.48-0.18,0.63-0.25h0.27v1.41
		c-0.25,0.16-0.59,0.37-1.03,0.63c-0.44,0.26-0.94,0.51-1.52,0.76c-0.58,0.25-1.22,0.46-1.92,0.64c-0.7,0.18-1.44,0.27-2.23,0.27
		c-0.94,0-1.81-0.12-2.6-0.35c-0.79-0.23-1.48-0.56-2.05-1c-0.58-0.44-1.03-0.98-1.36-1.63s-0.49-1.4-0.49-2.25V64.63z"/>
	<path class="st0" d="M235.15,64.63h-4.16v-1.31c0.69-0.18,1.32-0.34,1.87-0.49c0.55-0.15,1.03-0.36,1.43-0.63
		c0.4-0.27,0.71-0.63,0.95-1.09c0.23-0.46,0.37-1.09,0.43-1.89l0.19-3.28l3.79-0.8v7.36h9.12l-0.77,2.13h-8.35v18.21
		c0,0.53,0.18,0.98,0.53,1.35c0.36,0.36,0.79,0.67,1.29,0.91c0.51,0.24,1.04,0.41,1.6,0.52c0.56,0.11,1.05,0.16,1.48,0.16
		c0.28,0,0.6-0.03,0.96-0.09c0.36-0.06,0.7-0.13,1.04-0.21s0.64-0.17,0.92-0.27s0.48-0.18,0.63-0.25h0.27v1.41
		c-0.25,0.16-0.59,0.37-1.03,0.63c-0.44,0.26-0.94,0.51-1.52,0.76c-0.58,0.25-1.22,0.46-1.92,0.64c-0.7,0.18-1.44,0.27-2.23,0.27
		c-0.94,0-1.81-0.12-2.6-0.35c-0.79-0.23-1.48-0.56-2.05-1c-0.58-0.44-1.03-0.98-1.36-1.63s-0.49-1.4-0.49-2.25V64.63z"/>
	<path id="r" class="st0" d="M249.44,86.98l2.96-0.67c0.36-0.09,0.64-0.27,0.87-0.53c0.22-0.27,0.33-0.6,0.33-0.99V67.27
		c0-0.46-0.12-0.86-0.37-1.2s-0.68-0.61-1.28-0.83l-2.45-0.88v-0.72l8.29-1.84v5.84c0.43-0.69,0.9-1.4,1.41-2.12s1.1-1.37,1.76-1.95
		c0.66-0.58,1.38-1.05,2.17-1.43c0.79-0.37,1.67-0.56,2.65-0.56c0.5,0,0.92,0.02,1.28,0.07c0.36,0.04,0.68,0.1,0.96,0.17
		c0.28,0.07,0.55,0.16,0.8,0.25c0.25,0.1,0.52,0.2,0.83,0.31v6.24h-1.36l-0.85-2.24c-0.07-0.18-0.22-0.33-0.45-0.47
		c-0.23-0.13-0.49-0.24-0.79-0.32c-0.29-0.08-0.6-0.14-0.93-0.19s-0.63-0.07-0.89-0.07c-0.64,0-1.24,0.08-1.81,0.24
		c-0.57,0.16-1.11,0.39-1.63,0.69c-0.52,0.3-1.01,0.68-1.48,1.15s-0.93,1-1.37,1.6v15.76c0,0.41,0.11,0.75,0.33,1.01
		c0.22,0.27,0.51,0.44,0.87,0.51l3.44,0.67v1.2h-13.28V86.98z"/>
	<path class="st0" d="M284.23,86.63c-0.74,0.57-1.48,1.01-2.24,1.32c-0.76,0.31-1.5,0.52-2.24,0.61c-0.74,0.1-1.42,0.15-2.04,0.15
		c-1.01,0-1.93-0.19-2.76-0.56c-0.83-0.37-1.54-0.87-2.13-1.49c-0.6-0.62-1.06-1.35-1.39-2.19c-0.33-0.84-0.49-1.72-0.49-2.64
		c0-1.08,0.19-2.05,0.57-2.91c0.38-0.85,0.9-1.6,1.55-2.25c0.65-0.65,1.39-1.2,2.23-1.65c0.84-0.45,1.7-0.82,2.59-1.11
		c0.89-0.28,1.78-0.49,2.67-0.63c0.89-0.13,1.71-0.2,2.48-0.2c0.16,0,0.39,0.01,0.69,0.04c0.3,0.03,0.62,0.05,0.95,0.08
		c0.33,0.03,0.65,0.05,0.96,0.07c0.31,0.02,0.56,0.03,0.73,0.03l0.03-4.8c0-0.85-0.08-1.56-0.23-2.13
		c-0.15-0.57-0.38-1.02-0.69-1.35c-0.31-0.33-0.71-0.56-1.19-0.69c-0.48-0.13-1.06-0.2-1.73-0.2c-0.87,0-1.72,0.15-2.55,0.44
		c-0.83,0.29-1.6,0.65-2.33,1.08c-0.73,0.43-1.41,0.88-2.03,1.35s-1.16,0.88-1.6,1.21h-0.59l-0.83-4.21
		c0.52-0.28,1.09-0.57,1.72-0.87s1.31-0.55,2.04-0.77c0.73-0.22,1.51-0.4,2.33-0.55c0.83-0.14,1.69-0.21,2.6-0.21
		c1.08,0,2.2,0.15,3.33,0.44c1.14,0.29,2.17,0.77,3.09,1.43c0.92,0.66,1.67,1.53,2.25,2.61c0.58,1.08,0.86,2.41,0.84,3.97
		l-0.16,13.97c0,0.27,0.04,0.5,0.13,0.71s0.23,0.38,0.41,0.53c0.19,0.15,0.42,0.27,0.69,0.35s0.6,0.12,0.97,0.12
		c0.09,0,0.23-0.02,0.43-0.05c0.2-0.04,0.41-0.08,0.65-0.12s0.48-0.1,0.72-0.16c0.24-0.06,0.45-0.12,0.63-0.17h0.27v1.28
		c-0.25,0.2-0.57,0.42-0.97,0.68c-0.4,0.26-0.84,0.5-1.31,0.72s-0.96,0.41-1.47,0.57c-0.51,0.16-0.99,0.24-1.45,0.24
		c-0.68,0-1.27-0.07-1.79-0.21s-0.95-0.38-1.29-0.71c-0.35-0.33-0.6-0.77-0.77-1.33c-0.17-0.56-0.25-1.26-0.25-2.09
		C285.65,85.31,284.97,86.06,284.23,86.63z M286.35,74.66c-1.62,0-3.08,0.12-4.39,0.35c-1.31,0.23-2.42,0.6-3.33,1.09
		c-0.92,0.5-1.62,1.14-2.12,1.92c-0.5,0.78-0.75,1.72-0.75,2.8c0,0.92,0.14,1.7,0.41,2.33c0.28,0.63,0.63,1.14,1.07,1.53
		c0.43,0.39,0.92,0.67,1.47,0.84s1.07,0.25,1.59,0.25c0.5,0,1.03-0.05,1.59-0.16c0.56-0.11,1.11-0.27,1.64-0.49s1.04-0.51,1.52-0.87
		c0.48-0.36,0.89-0.78,1.23-1.28L286.35,74.66z"/>
	<path class="st0" d="M317.52,82.55v1.89c-0.52,0.52-1.12,1.04-1.81,1.56c-0.69,0.52-1.45,1-2.28,1.41
		c-0.83,0.42-1.72,0.76-2.68,1.03s-1.96,0.4-3.01,0.4c-1.72,0-3.28-0.35-4.65-1.04s-2.55-1.63-3.52-2.8
		c-0.97-1.17-1.72-2.53-2.24-4.07c-0.52-1.54-0.79-3.16-0.79-4.87c0-1.26,0.13-2.49,0.4-3.69c0.27-1.2,0.67-2.34,1.2-3.41
		c0.53-1.08,1.19-2.06,1.97-2.95c0.78-0.89,1.68-1.66,2.71-2.31c1.02-0.65,2.16-1.16,3.43-1.52c1.26-0.36,2.64-0.55,4.13-0.55
		c1.03,0,1.91,0.08,2.64,0.24c0.73,0.16,1.35,0.35,1.85,0.56c0.51,0.21,0.93,0.43,1.28,0.65c0.35,0.22,0.67,0.4,0.97,0.55
		l-0.83,4.21h-0.61c-0.64-0.44-1.28-0.89-1.91-1.33s-1.28-0.84-1.95-1.19c-0.67-0.35-1.37-0.63-2.12-0.85
		c-0.75-0.22-1.56-0.33-2.43-0.33c-0.34,0-0.68,0.04-1.01,0.13c-0.34,0.09-0.67,0.21-0.99,0.37s-0.61,0.35-0.88,0.56
		s-0.51,0.44-0.72,0.67c-0.27,0.3-0.54,0.71-0.83,1.23c-0.28,0.52-0.55,1.13-0.79,1.84c-0.24,0.71-0.44,1.51-0.6,2.39
		c-0.16,0.88-0.24,1.84-0.24,2.87c0,1.8,0.19,3.4,0.57,4.81c0.38,1.41,0.96,2.61,1.72,3.6c0.76,0.99,1.71,1.74,2.85,2.27
		c1.14,0.52,2.46,0.79,3.97,0.79c0.75,0,1.46-0.11,2.15-0.33s1.33-0.49,1.93-0.81s1.14-0.66,1.61-1.01s0.87-0.68,1.19-0.96H317.52z"
		/>
	<path class="st0" d="M322.8,64.63h-4.16v-1.31c0.69-0.18,1.32-0.34,1.87-0.49c0.55-0.15,1.03-0.36,1.43-0.63
		c0.4-0.27,0.71-0.63,0.95-1.09c0.23-0.46,0.37-1.09,0.43-1.89l0.19-3.28l3.79-0.8v7.36h9.12l-0.77,2.13h-8.35v18.21
		c0,0.53,0.18,0.98,0.53,1.35c0.36,0.36,0.79,0.67,1.29,0.91c0.51,0.24,1.04,0.41,1.6,0.52c0.56,0.11,1.05,0.16,1.48,0.16
		c0.28,0,0.6-0.03,0.96-0.09c0.36-0.06,0.7-0.13,1.04-0.21s0.64-0.17,0.92-0.27s0.48-0.18,0.63-0.25H336v1.41
		c-0.25,0.16-0.59,0.37-1.03,0.63c-0.44,0.26-0.94,0.51-1.52,0.76c-0.58,0.25-1.22,0.46-1.92,0.64c-0.7,0.18-1.44,0.27-2.23,0.27
		c-0.94,0-1.81-0.12-2.6-0.35c-0.79-0.23-1.48-0.56-2.05-1c-0.58-0.44-1.03-0.98-1.36-1.63s-0.49-1.4-0.49-2.25V64.63z"/>
	<path class="st0" d="M45.68,158.93l3.39-0.72c0.36-0.09,0.65-0.28,0.89-0.56c0.24-0.28,0.36-0.62,0.36-1.01v-29.65
		c0-0.41-0.12-0.76-0.36-1.04c-0.24-0.28-0.54-0.47-0.89-0.56l-3.39-0.69v-1.25h14.08v1.25l-3.36,0.69
		c-0.36,0.09-0.66,0.28-0.91,0.57c-0.25,0.29-0.37,0.64-0.37,1.03v15.39l15.47-16.93l-3.81-0.75v-1.25h10.85v1.25l-2.72,0.75
		c-0.41,0.12-0.87,0.36-1.39,0.72c-0.52,0.36-0.97,0.74-1.36,1.15l-10.75,11.41l12.99,17.41c0.18,0.23,0.37,0.47,0.59,0.71
		c0.21,0.24,0.43,0.46,0.64,0.65c0.21,0.2,0.43,0.37,0.64,0.52c0.21,0.15,0.42,0.25,0.61,0.31l2.45,0.61v1.25H66.06v-1.25l4.05-0.77
		l-11.92-16.11l-3.07,3.01v11.57c0,0.41,0.12,0.75,0.36,1.03c0.24,0.28,0.55,0.46,0.92,0.55l3.36,0.72v1.25H45.68V158.93z"/>
	<path id="e" class="st0" d="M100.78,154.61v1.92c-0.53,0.52-1.16,1.03-1.87,1.55c-0.71,0.52-1.5,0.98-2.36,1.39
		c-0.86,0.41-1.78,0.74-2.76,1s-2,0.39-3.07,0.39c-1.74,0-3.33-0.29-4.76-0.88c-1.43-0.59-2.66-1.45-3.69-2.6
		c-1.03-1.15-1.83-2.56-2.4-4.23c-0.57-1.67-0.85-3.6-0.85-5.79c0-1.81,0.27-3.55,0.81-5.21c0.54-1.66,1.33-3.12,2.36-4.39
		c1.03-1.26,2.29-2.27,3.77-3.03s3.16-1.13,5.03-1.13c1.58,0,2.99,0.29,4.21,0.88c1.23,0.59,2.26,1.35,3.09,2.29
		c0.84,0.94,1.47,2.02,1.89,3.24c0.43,1.22,0.64,2.45,0.64,3.69c0,0.16,0,0.33-0.01,0.51c-0.01,0.18-0.02,0.36-0.03,0.53
		s-0.03,0.35-0.05,0.51c-0.03,0.16-0.05,0.31-0.07,0.45H83.71c0.02,3.88,0.75,6.86,2.2,8.95c1.45,2.09,3.63,3.13,6.55,3.13
		c1,0,1.91-0.11,2.75-0.33c0.84-0.22,1.59-0.49,2.25-0.81c0.67-0.32,1.25-0.66,1.76-1.03s0.94-0.7,1.29-1H100.78z M96.08,143.94
		c0-1.12-0.09-2.2-0.28-3.24c-0.19-1.04-0.49-1.96-0.92-2.76c-0.43-0.8-0.98-1.44-1.67-1.91c-0.68-0.47-1.52-0.71-2.49-0.71
		c-0.98,0-1.85,0.2-2.63,0.61c-0.77,0.41-1.45,0.99-2.03,1.73c-0.58,0.75-1.05,1.65-1.43,2.72c-0.37,1.07-0.64,2.25-0.8,3.55H96.08z
		"/>
	<path class="st0" d="M125.42,154.61v1.92c-0.53,0.52-1.16,1.03-1.87,1.55c-0.71,0.52-1.5,0.98-2.36,1.39
		c-0.86,0.41-1.78,0.74-2.76,1s-2,0.39-3.07,0.39c-1.74,0-3.33-0.29-4.76-0.88c-1.43-0.59-2.66-1.45-3.69-2.6
		c-1.03-1.15-1.83-2.56-2.4-4.23c-0.57-1.67-0.85-3.6-0.85-5.79c0-1.81,0.27-3.55,0.81-5.21c0.54-1.66,1.33-3.12,2.36-4.39
		c1.03-1.26,2.29-2.27,3.77-3.03s3.16-1.13,5.03-1.13c1.58,0,2.99,0.29,4.21,0.88c1.23,0.59,2.26,1.35,3.09,2.29
		c0.84,0.94,1.47,2.02,1.89,3.24c0.43,1.22,0.64,2.45,0.64,3.69c0,0.16,0,0.33-0.01,0.51c-0.01,0.18-0.02,0.36-0.03,0.53
		s-0.03,0.35-0.05,0.51c-0.03,0.16-0.05,0.31-0.07,0.45h-16.96c0.02,3.88,0.75,6.86,2.2,8.95c1.45,2.09,3.63,3.13,6.55,3.13
		c1,0,1.91-0.11,2.75-0.33c0.84-0.22,1.59-0.49,2.25-0.81c0.67-0.32,1.25-0.66,1.76-1.03s0.94-0.7,1.29-1H125.42z M120.72,143.94
		c0-1.12-0.09-2.2-0.28-3.24c-0.19-1.04-0.49-1.96-0.92-2.76c-0.43-0.8-0.98-1.44-1.67-1.91c-0.68-0.47-1.52-0.71-2.49-0.71
		c-0.98,0-1.85,0.2-2.63,0.61c-0.77,0.41-1.45,0.99-2.03,1.73c-0.58,0.75-1.05,1.65-1.43,2.72c-0.37,1.07-0.64,2.25-0.8,3.55H120.72
		z"/>
	<path class="st0" d="M128.03,158.98l2.91-0.67c0.36-0.09,0.64-0.27,0.87-0.53c0.22-0.27,0.33-0.6,0.33-0.99v-17.57
		c0-0.46-0.12-0.85-0.37-1.17s-0.68-0.59-1.28-0.8l-2.45-0.88v-0.72l8.45-1.84v4.32c0.68-0.94,1.36-1.71,2.04-2.31
		c0.68-0.6,1.37-1.06,2.07-1.39c0.69-0.33,1.4-0.55,2.11-0.67c0.71-0.12,1.43-0.17,2.16-0.17c1.16,0,2.24,0.17,3.25,0.52
		c1.01,0.35,1.89,0.89,2.64,1.63c0.75,0.74,1.33,1.69,1.76,2.85s0.64,2.56,0.64,4.17v13.92c0,0.44,0.12,0.8,0.36,1.08
		c0.24,0.28,0.52,0.46,0.84,0.55l2.56,0.67v1.2h-12.32v-1.2l2.93-0.67c0.34-0.09,0.61-0.27,0.83-0.55c0.21-0.28,0.32-0.64,0.32-1.08
		v-12.24c0-1.19-0.07-2.27-0.2-3.24c-0.13-0.97-0.41-1.8-0.83-2.48c-0.42-0.68-1-1.21-1.75-1.59s-1.73-0.56-2.96-0.56
		c-0.53,0-1.09,0.05-1.67,0.16c-0.58,0.11-1.15,0.27-1.71,0.49c-0.56,0.22-1.09,0.51-1.6,0.87c-0.51,0.36-0.96,0.78-1.35,1.28v17.41
		c0,0.41,0.11,0.74,0.33,1c0.22,0.26,0.51,0.43,0.87,0.52l2.56,0.67v1.2h-12.35V158.98z"/>
	<path class="st0" d="M176.32,126.98c0-0.41-0.12-0.76-0.37-1.04c-0.25-0.28-0.55-0.47-0.91-0.56l-3.39-0.69v-1.25h14.11v1.25
		l-3.39,0.69c-0.36,0.09-0.65,0.28-0.89,0.57s-0.36,0.64-0.36,1.03v21.79c0,0.62,0.05,1.29,0.15,2.01c0.1,0.72,0.28,1.43,0.53,2.13
		c0.26,0.7,0.61,1.38,1.05,2.03c0.44,0.65,1.02,1.23,1.72,1.73c0.7,0.51,1.55,0.91,2.55,1.2c1,0.29,2.16,0.44,3.49,0.44
		c1.35,0,2.54-0.15,3.56-0.45s1.91-0.71,2.65-1.21c0.75-0.51,1.37-1.08,1.87-1.73c0.5-0.65,0.9-1.32,1.2-2.03
		c0.3-0.7,0.52-1.4,0.64-2.11c0.12-0.7,0.19-1.36,0.19-1.96v-21.68c0-0.41-0.12-0.75-0.36-1.03c-0.24-0.28-0.54-0.46-0.89-0.55
		l-3.39-0.88v-1.25h11.57v1.25l-3.39,0.88c-0.36,0.09-0.65,0.28-0.89,0.56c-0.24,0.28-0.36,0.62-0.36,1.01v22
		c0,1.44-0.2,2.73-0.61,3.87s-0.96,2.15-1.65,3.03c-0.69,0.88-1.49,1.64-2.4,2.27c-0.91,0.63-1.85,1.15-2.84,1.55
		c-0.99,0.4-1.98,0.69-2.97,0.88c-1,0.19-1.93,0.28-2.8,0.28c-2.2,0-4.14-0.3-5.81-0.89c-1.67-0.6-3.07-1.4-4.2-2.4
		c-1.13-1-1.98-2.16-2.55-3.45c-0.57-1.3-0.85-2.64-0.85-4.03V126.98z"/>
	<path class="st0" d="M209.28,158.98l2.91-0.67c0.36-0.09,0.64-0.27,0.87-0.53c0.22-0.27,0.33-0.6,0.33-0.99v-17.57
		c0-0.46-0.12-0.85-0.37-1.17s-0.68-0.59-1.28-0.8l-2.45-0.88v-0.72l8.45-1.84v4.32c0.68-0.94,1.36-1.71,2.04-2.31
		s1.37-1.06,2.07-1.39c0.69-0.33,1.4-0.55,2.11-0.67c0.71-0.12,1.43-0.17,2.16-0.17c1.16,0,2.24,0.17,3.25,0.52s1.89,0.89,2.64,1.63
		c0.75,0.74,1.33,1.69,1.76,2.85s0.64,2.56,0.64,4.17v13.92c0,0.44,0.12,0.8,0.36,1.08c0.24,0.28,0.52,0.46,0.84,0.55l2.56,0.67v1.2
		h-12.32v-1.2l2.93-0.67c0.34-0.09,0.61-0.27,0.83-0.55c0.21-0.28,0.32-0.64,0.32-1.08v-12.24c0-1.19-0.07-2.27-0.2-3.24
		c-0.13-0.97-0.41-1.8-0.83-2.48s-1-1.21-1.75-1.59c-0.75-0.37-1.73-0.56-2.96-0.56c-0.53,0-1.09,0.05-1.67,0.16
		c-0.58,0.11-1.15,0.27-1.71,0.49c-0.56,0.22-1.09,0.51-1.6,0.87c-0.51,0.36-0.96,0.78-1.35,1.28v17.41c0,0.41,0.11,0.74,0.33,1
		c0.22,0.26,0.51,0.43,0.87,0.52l2.56,0.67v1.2h-12.35V158.98z"/>
	<path class="st0" d="M239.81,158.98l3.01-0.67c0.36-0.09,0.64-0.27,0.87-0.53c0.22-0.27,0.33-0.6,0.33-0.99v-17.57
		c0-0.46-0.12-0.85-0.37-1.17s-0.68-0.59-1.28-0.8l-2.45-0.88v-0.72l8.59-1.84v22.99c0,0.41,0.11,0.74,0.33,1
		c0.22,0.26,0.51,0.43,0.87,0.52l2.77,0.67v1.2h-12.67V158.98z M245.97,127.51c-0.44,0-0.86-0.08-1.25-0.25
		c-0.39-0.17-0.73-0.4-1.01-0.68c-0.29-0.28-0.51-0.62-0.68-1.01s-0.25-0.82-0.25-1.28c0-0.44,0.08-0.86,0.25-1.25
		s0.4-0.73,0.68-1.01c0.28-0.28,0.62-0.51,1.01-0.68c0.39-0.17,0.81-0.25,1.25-0.25s0.87,0.08,1.27,0.25
		c0.4,0.17,0.75,0.4,1.05,0.68c0.3,0.28,0.54,0.62,0.71,1.01s0.25,0.81,0.25,1.25c0,0.46-0.08,0.89-0.25,1.28s-0.4,0.73-0.71,1.01
		c-0.3,0.28-0.65,0.51-1.05,0.68C246.84,127.43,246.42,127.51,245.97,127.51z"/>
	<path class="st0" d="M267.95,171.54l3.76-0.67c0.36-0.07,0.64-0.24,0.87-0.51c0.22-0.27,0.33-0.6,0.33-1.01v-11.68v-1.31
		c-0.73,1.05-1.48,1.86-2.27,2.44c-0.78,0.58-1.54,1-2.27,1.28c-0.73,0.28-1.42,0.44-2.07,0.49c-0.65,0.05-1.2,0.08-1.64,0.08
		c-1.6,0-3.03-0.31-4.28-0.92c-1.25-0.61-2.32-1.48-3.19-2.59c-0.87-1.11-1.54-2.43-2-3.96c-0.46-1.53-0.69-3.21-0.69-5.04
		c0-1.99,0.29-3.87,0.88-5.64c0.59-1.77,1.44-3.31,2.55-4.63c1.11-1.32,2.46-2.36,4.05-3.13c1.59-0.77,3.39-1.16,5.4-1.16
		c1.51,0,3.1,0.15,4.76,0.44c1.66,0.29,3.41,0.91,5.24,1.85v33.47c0,0.39,0.11,0.72,0.33,0.99c0.22,0.27,0.51,0.44,0.87,0.53
		l2.96,0.67v1.2h-13.6V171.54z M272.91,137.62c-0.3-0.27-0.69-0.52-1.16-0.75c-0.47-0.23-0.96-0.43-1.47-0.59
		c-0.51-0.16-1-0.28-1.49-0.37c-0.49-0.09-0.9-0.13-1.24-0.13c-1.37,0-2.57,0.29-3.61,0.87s-1.91,1.35-2.61,2.31
		s-1.23,2.07-1.59,3.33c-0.36,1.26-0.53,2.59-0.53,3.97c0,1.64,0.16,3.15,0.47,4.55c0.31,1.4,0.79,2.6,1.44,3.61
		c0.65,1.01,1.47,1.81,2.48,2.39c1,0.58,2.2,0.87,3.59,0.87c0.39,0,0.85-0.04,1.37-0.12c0.52-0.08,1.06-0.22,1.6-0.43
		c0.54-0.2,1.06-0.48,1.55-0.81c0.49-0.34,0.89-0.76,1.21-1.28V137.62z"/>
	<path id="u" class="st0" d="M285.87,139.22c0-0.46-0.12-0.85-0.37-1.17s-0.68-0.59-1.28-0.8l-2.45-0.88v-0.72l8.59-1.84v16.05
		c0,1.19,0.06,2.27,0.19,3.23c0.12,0.96,0.38,1.78,0.77,2.47c0.39,0.68,0.96,1.21,1.71,1.57c0.75,0.36,1.73,0.55,2.96,0.55
		c0.53,0,1.09-0.05,1.67-0.15c0.58-0.1,1.15-0.25,1.71-0.47c0.56-0.21,1.09-0.49,1.6-0.84s0.96-0.78,1.35-1.29v-15.71
		c0-0.46-0.12-0.82-0.36-1.07c-0.24-0.25-0.66-0.48-1.27-0.69l-2.51-0.88v-0.72l8.61-2.05v21.41c0,0.46,0.12,0.85,0.36,1.17
		c0.24,0.32,0.67,0.58,1.29,0.77l2.45,0.77v0.72l-7.92,2.05h-0.56v-4.53c-0.68,0.96-1.35,1.74-2.01,2.33
		c-0.67,0.6-1.35,1.06-2.04,1.39c-0.69,0.33-1.4,0.55-2.11,0.65c-0.71,0.11-1.44,0.16-2.19,0.16c-1.16,0-2.24-0.17-3.24-0.52
		c-1-0.35-1.87-0.89-2.6-1.63c-0.73-0.74-1.3-1.68-1.72-2.84s-0.63-2.55-0.63-4.19V139.22z"/>
	<path class="st0" d="M334.53,154.61v1.92c-0.53,0.52-1.16,1.03-1.87,1.55s-1.5,0.98-2.36,1.39c-0.86,0.41-1.78,0.74-2.76,1
		s-2,0.39-3.07,0.39c-1.74,0-3.33-0.29-4.76-0.88c-1.43-0.59-2.66-1.45-3.69-2.6c-1.03-1.15-1.83-2.56-2.4-4.23
		c-0.57-1.67-0.85-3.6-0.85-5.79c0-1.81,0.27-3.55,0.81-5.21c0.54-1.66,1.33-3.12,2.36-4.39c1.03-1.26,2.29-2.27,3.77-3.03
		c1.48-0.76,3.16-1.13,5.03-1.13c1.58,0,2.99,0.29,4.21,0.88c1.23,0.59,2.26,1.35,3.09,2.29c0.83,0.94,1.47,2.02,1.89,3.24
		c0.43,1.22,0.64,2.45,0.64,3.69c0,0.16,0,0.33-0.01,0.51s-0.02,0.36-0.03,0.53s-0.03,0.35-0.05,0.51
		c-0.03,0.16-0.05,0.31-0.07,0.45h-16.96c0.02,3.88,0.75,6.86,2.2,8.95s3.63,3.13,6.55,3.13c1,0,1.91-0.11,2.75-0.33
		c0.84-0.22,1.59-0.49,2.25-0.81c0.67-0.32,1.25-0.66,1.76-1.03s0.94-0.7,1.29-1H334.53z M329.84,143.94c0-1.12-0.09-2.2-0.28-3.24
		s-0.49-1.96-0.92-2.76c-0.43-0.8-0.98-1.44-1.67-1.91s-1.52-0.71-2.49-0.71c-0.98,0-1.85,0.2-2.63,0.61
		c-0.77,0.41-1.45,0.99-2.03,1.73c-0.58,0.75-1.05,1.65-1.43,2.72c-0.37,1.07-0.64,2.25-0.8,3.55H329.84z"/>
	<path class="st0" d="M123.47,198.87c-0.11-0.36-0.31-0.68-0.6-0.96c-0.29-0.28-0.62-0.48-0.97-0.59l-2.13-0.64v-1.25h12.72v1.25
		l-4.59,0.88l6.83,22.69l1.49,4.93l7.2-23.17l2.77-6.59h1.63l7.47,24.45l1.68,5.52l8.72-27.73l-4.53-0.99v-1.25h10.35v1.25
		l-2.13,0.64c-0.36,0.11-0.68,0.32-0.97,0.64c-0.29,0.32-0.5,0.66-0.63,1.01l-8.77,26.99l-2.75,6.59h-1.73l-8.05-26.03l-1.04-3.55
		l-7.2,22.99l-2.77,6.59h-1.81L123.47,198.87z"/>
	<path class="st0" d="M171.5,230.98l3.01-0.67c0.36-0.09,0.64-0.27,0.87-0.53c0.22-0.27,0.33-0.59,0.33-0.99v-17.57
		c0-0.46-0.12-0.85-0.37-1.17c-0.25-0.32-0.68-0.59-1.28-0.8l-2.45-0.88v-0.72l8.59-1.84v22.99c0,0.41,0.11,0.74,0.33,1
		s0.51,0.43,0.87,0.52l2.77,0.67v1.2H171.5V230.98z M177.66,199.51c-0.44,0-0.86-0.08-1.25-0.25c-0.39-0.17-0.73-0.4-1.01-0.68
		c-0.29-0.28-0.51-0.62-0.68-1.01c-0.17-0.39-0.25-0.82-0.25-1.28c0-0.44,0.08-0.86,0.25-1.25s0.4-0.73,0.68-1.01
		c0.28-0.28,0.62-0.51,1.01-0.68c0.39-0.17,0.81-0.25,1.25-0.25s0.87,0.08,1.27,0.25c0.4,0.17,0.75,0.4,1.05,0.68
		c0.3,0.29,0.54,0.62,0.71,1.01s0.25,0.81,0.25,1.25c0,0.46-0.08,0.89-0.25,1.28c-0.17,0.39-0.4,0.73-0.71,1.01
		c-0.3,0.28-0.65,0.51-1.05,0.68C178.52,199.43,178.1,199.51,177.66,199.51z"/>
	<path class="st0" d="M185.92,230.98l2.91-0.67c0.36-0.09,0.64-0.27,0.87-0.53c0.22-0.27,0.33-0.59,0.33-0.99v-17.57
		c0-0.46-0.12-0.85-0.37-1.17c-0.25-0.32-0.68-0.59-1.28-0.8l-2.45-0.88v-0.72l8.45-1.84v4.32c0.68-0.94,1.36-1.71,2.04-2.31
		c0.68-0.59,1.37-1.06,2.07-1.39c0.69-0.33,1.4-0.55,2.11-0.67s1.43-0.17,2.16-0.17c1.16,0,2.24,0.17,3.25,0.52s1.89,0.89,2.64,1.63
		c0.75,0.74,1.33,1.69,1.76,2.85c0.43,1.17,0.64,2.56,0.64,4.17v13.92c0,0.44,0.12,0.8,0.36,1.08c0.24,0.28,0.52,0.46,0.84,0.55
		l2.56,0.67v1.2h-12.32v-1.2l2.93-0.67c0.34-0.09,0.61-0.27,0.83-0.55c0.21-0.28,0.32-0.64,0.32-1.08v-12.24
		c0-1.19-0.07-2.27-0.2-3.24c-0.13-0.97-0.41-1.79-0.83-2.48s-1-1.21-1.75-1.59c-0.75-0.37-1.73-0.56-2.96-0.56
		c-0.53,0-1.09,0.05-1.67,0.16c-0.58,0.11-1.15,0.27-1.71,0.49c-0.56,0.22-1.09,0.51-1.6,0.87s-0.96,0.78-1.35,1.28v17.41
		c0,0.41,0.11,0.74,0.33,1s0.51,0.43,0.87,0.52l2.56,0.67v1.2h-12.35V230.98z"/>
	<path class="st0" d="M217.39,224.1h1.36l1.01,3.17c0.14,0.44,0.42,0.82,0.83,1.12c0.41,0.3,0.79,0.55,1.15,0.75
		c0.3,0.16,0.67,0.33,1.11,0.51s0.9,0.35,1.4,0.51c0.5,0.16,1.01,0.29,1.53,0.39c0.52,0.1,1.03,0.15,1.51,0.15
		c0.66,0,1.3-0.08,1.92-0.23c0.62-0.15,1.17-0.4,1.65-0.76c0.48-0.35,0.87-0.82,1.16-1.39c0.29-0.57,0.44-1.28,0.44-2.13
		c0-0.71-0.13-1.31-0.39-1.8s-0.61-0.9-1.05-1.23s-0.96-0.6-1.55-0.81c-0.59-0.21-1.21-0.41-1.87-0.59
		c-0.91-0.25-1.78-0.49-2.63-0.72c-0.84-0.23-1.61-0.46-2.31-0.69c-0.73-0.23-1.39-0.56-1.99-0.99c-0.6-0.43-1.11-0.94-1.55-1.55
		s-0.77-1.28-1.01-2.03c-0.24-0.75-0.36-1.55-0.36-2.4c0-1.16,0.25-2.21,0.76-3.17s1.2-1.78,2.07-2.47
		c0.87-0.68,1.88-1.21,3.03-1.59c1.15-0.37,2.36-0.56,3.64-0.56c0.75,0,1.43,0.03,2.05,0.08c0.62,0.05,1.22,0.13,1.8,0.23
		c0.58,0.1,1.15,0.21,1.71,0.35c0.56,0.13,1.15,0.28,1.77,0.44l0.43,7.15h-1.47l-1.17-3.2c-0.14-0.39-0.37-0.73-0.69-1.03
		s-0.67-0.54-1.04-0.73c-0.6-0.3-1.28-0.57-2.04-0.8s-1.54-0.35-2.36-0.35c-0.57,0-1.13,0.07-1.68,0.21
		c-0.55,0.14-1.05,0.37-1.49,0.69c-0.44,0.32-0.8,0.74-1.08,1.27c-0.28,0.52-0.41,1.16-0.41,1.91c0,0.75,0.11,1.38,0.33,1.89
		c0.22,0.52,0.52,0.94,0.88,1.28c0.36,0.34,0.77,0.61,1.21,0.83c0.44,0.21,0.9,0.39,1.36,0.53c0.37,0.12,0.77,0.25,1.2,0.37
		c0.43,0.13,0.84,0.25,1.24,0.36s0.77,0.22,1.12,0.32c0.35,0.1,0.63,0.18,0.87,0.25c0.91,0.27,1.75,0.59,2.53,0.96
		s1.46,0.83,2.04,1.36c0.58,0.53,1.03,1.16,1.36,1.88c0.33,0.72,0.49,1.56,0.49,2.52c0,1.49-0.28,2.78-0.83,3.85
		c-0.55,1.08-1.29,1.96-2.23,2.65c-0.93,0.69-2.03,1.2-3.28,1.53c-1.25,0.33-2.58,0.49-3.99,0.49c-0.91,0-1.75-0.05-2.52-0.16
		c-0.77-0.11-1.5-0.25-2.19-0.43c-0.68-0.18-1.34-0.37-1.96-0.57c-0.62-0.2-1.24-0.4-1.84-0.6V224.1z"/>
	<path class="st0" d="M251.17,232.9c-1.87,0-3.55-0.32-5.05-0.96c-1.5-0.64-2.78-1.56-3.84-2.75c-1.06-1.19-1.87-2.62-2.44-4.29
		c-0.57-1.67-0.85-3.54-0.85-5.6c0-1.9,0.28-3.68,0.85-5.35c0.57-1.66,1.39-3.12,2.45-4.36c1.07-1.24,2.37-2.22,3.91-2.93
		c1.54-0.71,3.28-1.07,5.24-1.07c2.1,0,3.91,0.38,5.44,1.13c1.53,0.76,2.79,1.76,3.79,3.01c1,1.25,1.74,2.7,2.23,4.35
		c0.49,1.64,0.73,3.35,0.73,5.11c0,1.88-0.28,3.66-0.84,5.32c-0.56,1.66-1.37,3.12-2.44,4.36s-2.37,2.23-3.91,2.95
		C254.9,232.54,253.15,232.9,251.17,232.9z M251.55,231.14c1.42,0,2.59-0.37,3.52-1.11s1.66-1.67,2.2-2.8
		c0.54-1.13,0.92-2.36,1.13-3.69c0.21-1.33,0.32-2.6,0.32-3.81c0-1.48-0.14-2.95-0.41-4.43c-0.28-1.48-0.72-2.8-1.32-3.99
		c-0.6-1.18-1.4-2.14-2.37-2.88c-0.98-0.74-2.16-1.11-3.55-1.11c-0.94,0-1.77,0.17-2.48,0.51c-0.71,0.34-1.33,0.8-1.87,1.37
		c-0.53,0.58-0.98,1.25-1.33,2c-0.36,0.76-0.64,1.56-0.87,2.4c-0.22,0.84-0.38,1.7-0.47,2.57c-0.09,0.87-0.13,1.71-0.13,2.51
		c0,0.89,0.05,1.81,0.15,2.77s0.27,1.9,0.51,2.81c0.24,0.92,0.55,1.79,0.93,2.63c0.38,0.84,0.86,1.56,1.43,2.19
		c0.57,0.62,1.23,1.12,1.99,1.49C249.68,230.95,250.55,231.14,251.55,231.14z"/>
	<path id="m" class="st0" d="M266.24,231.03l2.91-0.67c0.36-0.09,0.64-0.28,0.84-0.56s0.31-0.62,0.31-1.01v-17.57
		c0-0.46-0.12-0.84-0.35-1.15c-0.23-0.3-0.65-0.56-1.25-0.77l-2.45-0.88v-0.72l8.4-1.89v4.32c0.62-0.87,1.25-1.59,1.88-2.17
		c0.63-0.58,1.28-1.04,1.95-1.39s1.36-0.6,2.07-0.75c0.71-0.15,1.47-0.23,2.27-0.23c0.85,0,1.67,0.09,2.45,0.28s1.5,0.48,2.16,0.89
		c0.66,0.41,1.23,0.93,1.72,1.56c0.49,0.63,0.87,1.39,1.13,2.28c0.84-1.19,1.64-2.12,2.41-2.79c0.77-0.67,1.52-1.16,2.24-1.49
		c0.72-0.33,1.42-0.53,2.09-0.61c0.67-0.08,1.32-0.12,1.95-0.12c1.12,0,2.17,0.17,3.15,0.52s1.83,0.89,2.55,1.63
		c0.72,0.74,1.29,1.69,1.71,2.85c0.42,1.17,0.63,2.56,0.63,4.17v14.08c0,0.39,0.11,0.71,0.33,0.96c0.22,0.25,0.51,0.42,0.87,0.51
		l2.56,0.67v1.2h-12.29v-1.15l2.91-0.67c0.36-0.09,0.63-0.28,0.84-0.56c0.2-0.28,0.31-0.62,0.31-1.01v-12.35
		c0-1.19-0.07-2.27-0.2-3.24c-0.13-0.97-0.39-1.79-0.77-2.48c-0.38-0.68-0.93-1.21-1.65-1.59s-1.67-0.56-2.84-0.56
		c-0.5,0-1.03,0.05-1.59,0.16c-0.56,0.11-1.12,0.27-1.67,0.49c-0.55,0.22-1.08,0.52-1.59,0.88s-0.95,0.8-1.32,1.32v17.41
		c0,0.41,0.11,0.73,0.33,0.97c0.22,0.24,0.51,0.41,0.87,0.49l2.56,0.67v1.2h-12.29v-1.15l2.91-0.67c0.36-0.09,0.64-0.27,0.84-0.53
		c0.2-0.27,0.31-0.6,0.31-0.99v-12.4c0-1.19-0.07-2.27-0.2-3.24c-0.13-0.97-0.4-1.79-0.79-2.48c-0.39-0.68-0.95-1.21-1.67-1.59
		c-0.72-0.37-1.68-0.56-2.87-0.56c-0.52,0-1.05,0.05-1.61,0.16c-0.56,0.11-1.11,0.27-1.65,0.49c-0.54,0.22-1.06,0.51-1.55,0.87
		s-0.92,0.78-1.29,1.28v17.41c-0.04,0.41,0.07,0.74,0.31,1s0.54,0.43,0.89,0.52l2.56,0.67v1.2h-12.29V231.03z"/>
	<path class="st0" d="M334.53,226.61v1.92c-0.53,0.52-1.16,1.03-1.87,1.55s-1.5,0.98-2.36,1.39s-1.78,0.74-2.76,1
		c-0.98,0.26-2,0.39-3.07,0.39c-1.74,0-3.33-0.29-4.76-0.88c-1.43-0.59-2.66-1.45-3.69-2.6c-1.03-1.15-1.83-2.56-2.4-4.23
		c-0.57-1.67-0.85-3.6-0.85-5.79c0-1.81,0.27-3.55,0.81-5.21s1.33-3.12,2.36-4.39c1.03-1.26,2.29-2.27,3.77-3.03
		c1.48-0.76,3.16-1.13,5.03-1.13c1.58,0,2.99,0.29,4.21,0.88c1.23,0.59,2.26,1.35,3.09,2.29c0.83,0.94,1.47,2.02,1.89,3.24
		s0.64,2.45,0.64,3.69c0,0.16,0,0.33-0.01,0.51c-0.01,0.18-0.02,0.36-0.03,0.53c-0.01,0.18-0.03,0.35-0.05,0.51
		c-0.03,0.16-0.05,0.31-0.07,0.45h-16.96c0.02,3.88,0.75,6.86,2.2,8.95s3.63,3.13,6.55,3.13c1,0,1.91-0.11,2.75-0.33
		c0.84-0.22,1.59-0.49,2.25-0.81c0.67-0.32,1.25-0.66,1.76-1.03s0.94-0.7,1.29-1H334.53z M329.84,215.94c0-1.12-0.09-2.2-0.28-3.24
		c-0.19-1.04-0.49-1.96-0.92-2.76s-0.98-1.44-1.67-1.91s-1.52-0.71-2.49-0.71c-0.98,0-1.85,0.21-2.63,0.61
		c-0.77,0.41-1.45,0.99-2.03,1.73c-0.58,0.75-1.05,1.65-1.43,2.72c-0.37,1.07-0.64,2.25-0.8,3.55H329.84z"/>
</g>
</svg>
